# xmcd
#
# Track frame offsets:
# 150
# 8944
# 19721
# 37248
# 44351
# 62401
# 64338
# 79610
# 94280
# 110555
# 126280
# 139770
# 159527
# 166996
#
# Disc length: 2399 seconds
#
#
# Revision: 0
# Processed by: cddbd v1.5PL3 Copyright (c) Steve Scherf et al.
# Submitted via: FreeRIP 2.51 
#
DISCID=bd095d0e
DTITLE=Langhorne Slim - Slim Picken's
DYEAR=1999
DGENRE=Alt. Rock
TTITLE0=Feather Bed
TTITLE1=Counting Fireflies
TTITLE2=Flesh Tomb Blues
TTITLE3=Canned Heat
TTITLE4=Ammunition is for Disbelievers
TTITLE5=Intro
TTITLE6=I Will
TTITLE7=Without a Warning
TTITLE8=Gonna Get My Gun
TTITLE9=Gallis Pole
TTITLE10=Kansas City Blues
TTITLE11=Bull Cow Blues
TTITLE12=Fruit Camp
TTITLE13=Natural Selection Blues
EXTD=
EXTT0=
EXTT1=
EXTT2=
EXTT3=
EXTT4=
EXTT5=
EXTT6=
EXTT7=
EXTT8=
EXTT9=
EXTT10=
EXTT11=
EXTT12=
EXTT13=
PLAYORDER=
